<svg width="48" height="48" viewBox="0 0 48 48" fill="none" xmlns="http://www.w3.org/2000/svg">
<g clip-path="url(#clip0_507_2)">
<path d="M15.1601 8.16L12.3001 5.3C7.50006 8.96 4.34006 14.6 4.06006 21H8.06006C8.36006 15.7 11.0801 11.06 15.1601 8.16ZM39.9401 21H43.9401C43.6401 14.6 40.4801 8.96 35.7001 5.3L32.8601 8.16C36.9001 11.06 39.6401 15.7 39.9401 21ZM36.0001 22C36.0001 15.86 32.7201 10.72 27.0001 9.36V8C27.0001 6.34 25.6601 5 24.0001 5C22.3401 5 21.0001 6.34 21.0001 8V9.36C15.2601 10.72 12.0001 15.84 12.0001 22V32L8.00006 36V38H40.0001V36L36.0001 32V22ZM24.0001 44C24.2801 44 24.5401 43.98 24.8001 43.92C26.1001 43.64 27.1601 42.76 27.6801 41.56C27.8801 41.08 27.9801 40.56 27.9801 40H19.9801C20.0001 42.2 21.7801 44 24.0001 44Z" fill="#B49747"/>
</g>
<defs>
<clipPath id="clip0_507_2">
<rect width="48" height="48" fill="white"/>
</clipPath>
</defs>
</svg>
